#!OML:ASF H:\Terrain\Patient Classification 1\Terrain2\Thursday\justin.ASF
:FULLY-SPECIFIED
:DEGREES
3010
root -8.91783 17.3262 -22.6039 1486.95 -83.2673 -767.519
lowerback 3.94439 1.83104 6.12707
upperback 1.52719 2.60979 3.15904
thorax -0.506912 1.27741 -0.286516
lowerneck -13.2646 -2.4123 -8.66978
upperneck 28.3724 -2.54998 2.48359
head 11.6031 -1.98579 2.00933
rclavicle 2.86747e-014 2.78299e-014
rhumerus -26.4002 -5.77606 -78.9224
rradius 41.7355
rwrist -17.6765
rhand -22.5997 12.0479
rfingers 7.12502
rthumb 3.82971 -17.8974
lclavicle 2.86747e-014 2.78299e-014
lhumerus -38.1309 1.64197 88.3651
lradius 34.1087
lwrist 1.55859
lhand -17.4181 22.0044
lfingers 7.12502
lthumb 8.83193 51.7996
rfemur -10.9737 -4.69135 30.9067
rtibia 24.2813
rfoot -9.66757 0.695076
rtoes 14.6086
lfemur -18.3318 2.38152 -10.916
ltibia 51.0625
lfoot -17.876 -11.5743
ltoes 0.949921
3011
root -8.96668 17.3165 -22.5958 1489.09 -83.1799 -769.724
lowerback 3.92354 1.84234 6.31493
upperback 1.59808 2.61886 3.34918
thorax -0.421234 1.2816 -0.192657
lowerneck -13.328 -2.32485 -8.69748
upperneck 28.4021 -2.35415 2.29195
head 11.6144 -1.92489 1.9697
rclavicle 4.91495e-014 4.45278e-014
rhumerus -26.1369 -5.53375 -78.8053
rradius 41.959
rwrist -17.5984
rhand -21.7176 12.0561
rfingers 7.12502
rthumb 4.68142 -17.8722
lclavicle 4.91495e-014 4.45278e-014
lhumerus -37.9183 2.0949 88.3727
lradius 34.043
lwrist 1.49837
lhand -17.5611 21.7873
lfingers 7.12502
lthumb 8.69393 51.5883
rfemur -10.9644 -4.25066 31.1093
rtibia 24.87
rfoot -9.71436 0.677713
rtoes 12.5228
lfemur -17.9517 2.10644 -10.8095
ltibia 49.1077
lfoot -18.1679 -11.5385
ltoes 1.97423
3012
root -9.01142 17.3096 -22.5948 1490.45 -82.9902 -771.055
lowerback 3.89205 1.76481 6.70235
upperback 1.59988 2.5227 3.37765
thorax -0.389714 1.23395 -0.372524
lowerneck -13.0358 -2.1547 -8.8747
upperneck 28.0999 -2.18635 2.64113
head 11.431 -1.8176 2.15325
rclavicle -8.69683e-015 -1.59028e-014
rhumerus -26.0141 -4.89892 -78.9173
rradius 42.3446
rwrist -17.9024
rhand -21.8024 12.1148
rfingers 7.12502
rthumb 4.59958 -17.8153
lclavicle -8.69683e-015 -1.59028e-014
lhumerus -37.7573 2.18669 88.2824
lradius 34.0854
lwrist 2.02478
lhand -17.5666 20.9446
lfingers 7.12502
lthumb 8.6886 50.7457
rfemur -11.0802 -3.87755 31.3538
rtibia 25.4593
rfoot -9.90672 0.213207
rtoes 11.804
lfemur -17.7262 1.84945 -10.6608
ltibia 47.1445
lfoot -18.3108 -11.9059
ltoes 3.19618
3013
root -9.06042 17.3019 -22.5912 1491.84 -83.3039 -772.138
lowerback 3.59623 1.66422 6.5713
upperback 1.52632 2.36282 3.4066
thorax -0.315973 1.15502 -0.256707
lowerneck -12.9705 -1.8595 -9.11149
upperneck 28.0198 -1.72374 2.69257
head 11.3589 -1.62709 2.27536
rclavicle 8.24956e-015 -1.90833e-014
rhumerus -25.8347 -3.75847 -79.0484
rradius 42.6493
rwrist -18.3316
rhand -21.6777 12.094
rfingers 7.12502
rthumb 4.71996 -17.8334
lclavicle 8.24956e-015 -1.90833e-014
lhumerus -37.9007 2.4941 88.3738
lradius 34.3641
lwrist 2.36057
lhand -17.8019 20.8504
lfingers 7.12502
lthumb 8.4615 50.6609
rfemur -11.4468 -3.5707 31.1685
rtibia 25.987
rfoot -10.7149 -0.231399
rtoes 13.8069
lfemur -17.6188 1.67183 -11.0275
ltibia 45.1611
lfoot -18.8193 -11.7511
ltoes 2.87304
3014
root -9.11311 17.2947 -22.5852 1492.15 -83.9659 -772.215
lowerback 3.27606 1.68509 5.91287
upperback 1.54284 2.34395 3.46679
thorax -0.151562 1.1484 0.180215
lowerneck -13.2187 -1.75879 -9.27745
upperneck 28.1664 -1.41518 2.35315
head 11.4482 -1.55161 2.2199
rclavicle 1.20762e-014 4.29375e-014
rhumerus -25.4647 -3.28033 -78.9584
rradius 42.6272
rwrist -18.3501
rhand -21.1982 12.2117
rfingers 7.12502
rthumb 5.18302 -17.7049
lclavicle 1.20762e-014 4.29375e-014
lhumerus -37.9546 2.85361 88.6256
lradius 34.5824
lwrist 2.35599
lhand -18.5197 21.7994
lfingers 7.12502
lthumb 7.76871 51.6367
rfemur -11.6953 -3.09422 30.5345
rtibia 26.532
rfoot -11.58 0.0488653
rtoes 20.6977
lfemur -17.2577 1.43634 -11.8227
ltibia 43.0981
lfoot -19.5729 -10.8094
ltoes -0.407344
3015
root -9.16319 17.2955 -22.5831 1494.15 -84.2258 -774.135
lowerback 3.11067 1.92547 5.88566
upperback 1.55085 2.65104 3.37543
thorax -0.0355273 1.30588 0.0992968
lowerneck -13.3075 -1.94764 -9.08285
upperneck 28.3066 -1.69336 2.22451
head 11.5366 -1.67621 2.10144
rclavicle -1.06847e-014 3.26007e-014
rhumerus -25.2906 -4.57024 -78.8479
rradius 42.5393
rwrist -17.1259
rhand -21.3555 12.6148
rfingers 7.12502
rthumb 5.03109 -17.3055
lclavicle -1.06847e-014 3.26007e-014
lhumerus -37.8335 2.09131 88.766
lradius 34.7183
lwrist 3.0533
lhand -19.7368 22.4422
lfingers 7.12502
lthumb 6.59394 52.3195
rfemur -11.7968 -2.65341 30.3448
rtibia 27.1131
rfoot -12.1671 0.738725
rtoes 27.3191
lfemur -16.7558 1.23633 -12.0768
ltibia 40.9495
lfoot -19.6895 -10.0563
ltoes -3.28109
3016
root -9.21263 17.305 -22.5842 1497.77 -84.2214 -777.701
lowerback 2.97125 2.07289 6.13894
upperback 1.51314 2.84322 3.35663
thorax 0.0255594 1.40365 -0.0596422
lowerneck -13.5521 -2.10502 -9.6295
upperneck 28.8977 -1.98761 2.93546
head 11.8495 -1.80145 2.42383
rclavicle 6.70898e-015 1.51076e-014
rhumerus -25.2785 -4.99599 -78.9391
rradius 42.6481
rwrist -16.6266
rhand -22.5367 12.8467
rfingers 7.12502
rthumb 3.89049 -17.0976
lclavicle 6.70898e-015 1.51076e-014
lhumerus -37.9012 1.36471 88.8666
lradius 34.9885
lwrist 3.75505
lhand -17.5154 21.3211
lfingers 7.12502
lthumb 8.73798 51.1203
rfemur -11.7825 -2.29786 30.497
rtibia 27.5064
rfoot -12.3606 1.21728
rtoes 29.921
lfemur -16.2465 1.00481 -11.9494
ltibia 38.8673
lfoot -19.2117 -9.90026
ltoes -2.2507
3017
root -9.2629 17.3147 -22.5841 1498.71 -84.3102 -778.581
lowerback 2.7612 1.90715 5.95371
upperback 1.5066 2.59607 3.56011
thorax 0.107177 1.27836 0.264758
lowerneck -13.5905 -1.81065 -9.5555
upperneck 28.9729 -1.45874 2.51195
head 11.8464 -1.61507 2.32643
rclavicle 7.45443e-015 3.02153e-014
rhumerus -25.0558 -3.95782 -79.1005
rradius 42.7762
rwrist -17.3654
rhand -22.445 12.6334
rfingers 7.12502
rthumb 3.9791 -17.3092
lclavicle 7.45443e-015 3.02153e-014
lhumerus -38.0356 1.54877 89.0915
lradius 35.1849
lwrist 3.84528
lhand -16.7262 20.9576
lfingers 7.12502
lthumb 9.49952 50.7235
rfemur -11.7191 -2.17592 30.3819
rtibia 27.7163
rfoot -12.305 1.66848
rtoes 31.0544
lfemur -15.7323 0.175517 -12.026
ltibia 36.9642
lfoot -18.7334 -10.0294
ltoes 2.05268
3018
root -9.31337 17.3067 -22.5931 1503.17 -83.9227 -783.046
lowerback 2.60869 1.78666 6.22587
upperback 1.52655 2.41148 3.96333
thorax 0.201499 1.18165 0.538829
lowerneck -13.5846 -1.59967 -9.45263
upperneck 28.991 -1.0244 1.9603
head 11.8226 -1.48262 2.16168
rclavicle -7.10655e-015 -3.81667e-014
rhumerus -24.8099 -3.07588 -79.1431
rradius 42.8318
rwrist -17.7342
rhand -21.576 12.3242
rfingers 7.12502
rthumb 4.81823 -17.601
lclavicle -7.10655e-015 -3.81667e-014
lhumerus -38.0715 1.81375 89.3381
lradius 35.1612
lwrist 3.66102
lhand -17.4161 20.8306
lfingers 7.12502
lthumb 8.83385 50.6257
rfemur -11.6134 -1.96514 31.0552
rtibia 27.8597
rfoot -12.269 1.93655
rtoes 30.9351
lfemur -15.2629 -0.439521 -11.3304
ltibia 35.3053
lfoot -18.2927 -10.1151
ltoes 6.43216
3019
root -9.36055 17.2956 -22.6016 1508.33 -83.7169 -788.146
lowerback 2.45246 1.82373 6.36166
upperback 1.50542 2.44161 4.18432
thorax 0.265289 1.19385 0.695985
lowerneck -13.5648 -1.42899 -9.06763
upperneck 29.027 -0.743429 1.47383
head 11.8113 -1.37996 1.95255
rclavicle -1.19271e-015 -3.10104e-014
rhumerus -24.7006 -2.50875 -79.2916
rradius 42.8907
rwrist -17.9526
rhand -21.882 12.2705
rfingers 7.12502
rthumb 4.52269 -17.6612
lclavicle -1.19271e-015 -3.10104e-014
lhumerus -38.1378 2.04005 89.37
lradius 35.1593
lwrist 3.225
lhand -18.1714 20.783
lfingers 7.12502
lthumb 8.10489 50.6075
rfemur -11.502 -1.47924 31.6038
rtibia 27.8767
rfoot -12.1026 2.03691
rtoes 30.2447
lfemur -14.9735 -0.169905 -10.8836
ltibia 33.9026
lfoot -18.0722 -9.55927
ltoes 6.18239
3020
root -9.4085 17.2824 -22.6021 1508.29 -84.5202 -787.821
lowerback 2.10811 1.77049 5.43935
upperback 1.40693 2.34446 4.04561
thorax 0.318847 1.1465 1.07352
lowerneck -13.3552 -1.19615 -9.08594
upperneck 28.8613 -0.419234 1.44187
head 11.6829 -1.23651 1.98742
rclavicle 2.38542e-015 7.95139e-015
rhumerus -24.5877 -2.18829 -79.5881
rradius 42.7815
rwrist -17.8538
rhand -22.2612 12.2072
rfingers 7.12502
rthumb 4.15659 -17.732
lclavicle 2.38542e-015 7.95139e-015
lhumerus -38.2637 2.2029 89.3196
lradius 35.185
lwrist 2.65148
lhand -18.371 20.6665
lfingers 7.12502
lthumb 7.91226 50.4985
rfemur -11.6972 -1.64276 30.8396
rtibia 27.9452
rfoot -12.1516 2.31384
rtoes 29.0778
lfemur -14.8866 -0.347086 -11.8058
ltibia 32.7443
lfoot -17.5738 -9.50418
ltoes 8.52538
3021
root -9.4562 17.2853 -22.5952 1506.84 -84.9087 -786.19
lowerback 1.8318 1.75292 5.12328
upperback 1.32196 2.30899 3.86861
thorax 0.379036 1.13204 1.07416
lowerneck -13.0795 -1.14109 -9.2428
upperneck 28.6389 -0.411706 1.72391
head 11.5382 -1.20664 2.11858
rclavicle 6.4605e-016 4.77083e-015
rhumerus -24.608 -2.20097 -79.6479
rradius 42.6734
rwrist -17.5072
rhand -21.7307 11.9804
rfingers 7.12502
rthumb 4.66879 -17.9482
lclavicle 6.4605e-016 4.77083e-015
lhumerus -38.3566 1.73741 89.3694
lradius 35.2924
lwrist 2.28307
lhand -17.2772 20.6977
lfingers 7.12502
lthumb 8.96786 50.4871
rfemur -11.7711 -2.05552 30.384
rtibia 28.0392
rfoot -12.4349 2.39061
rtoes 27.307
lfemur -14.7534 -1.35552 -12.1627
ltibia 31.7701
lfoot -15.7712 -10.3028
ltoes 20.5368
3022
root -9.48722 17.2661 -22.5522 1504.97 -84.6967 -784.091
lowerback 1.65101 1.74843 5.86649
upperback 1.19637 2.3065 3.68921
thorax 0.389364 1.13529 0.481881
lowerneck -13.1259 -1.23552 -9.08678
upperneck 28.7362 -0.609924 1.8135
head 11.5954 -1.27107 2.09953
rclavicle -3.40419e-014 -1.74931e-014
rhumerus -24.6648 -2.49999 -79.4993
rradius 42.6494
rwrist -17.229
rhand -21.9017 11.9763
rfingers 7.12502
rthumb 4.50369 -17.9558
lclavicle -3.40419e-014 -1.74931e-014
lhumerus -38.3414 1.25368 89.3582
lradius 35.5356
lwrist 2.53247
lhand -14.5025 20.6743
lfingers 7.12502
lthumb 11.6445 50.3308
rfemur -11.8948 -3.05257 30.3045
rtibia 28.1432
rfoot -12.732 2.97381
rtoes 26.3323
lfemur -14.8652 -0.451839 -12.5037
ltibia 31.0084
lfoot -14.4445 -8.10866
ltoes 11.7181
3023
root -9.51598 17.2514 -22.5119 1503.08 -84.6927 -781.996
lowerback 1.49677 1.67349 6.37128
upperback 1.08253 2.21012 3.47253
thorax 0.3838 1.09086 -0.0163769
lowerneck -13.3191 -1.21656 -8.75229
upperneck 28.9596 -0.623803 1.71387
head 11.719 -1.26207 2.00525
rclavicle -8.44835e-015 -2.78299e-014
rhumerus -24.5706 -2.96802 -79.6432
rradius 42.5073
rwrist -16.8833
rhand -23.2589 12.0543
rfingers 7.12502
rthumb 3.1931 -17.9016
lclavicle -8.44835e-015 -2.78299e-014
lhumerus -38.2492 0.851861 89.3659
lradius 35.6684
lwrist 3.20792
lhand -13.7366 21.0442
lfingers 7.12502
lthumb 12.383 50.6575
rfemur -12.041 -4.07335 30.0535
rtibia 28.1117
rfoot -13.0471 3.79505
rtoes 26.4286
lfemur -14.8542 -0.739621 -12.9747
ltibia 30.554
lfoot -12.7013 -5.59179
ltoes 9.22363
3024
root -9.55776 17.2517 -22.5138 1503.33 -84.7149 -782.294
lowerback 1.35962 1.6633 6.5191
upperback 1.10669 2.18826 3.2925
thorax 0.497437 1.08648 -0.277986
lowerneck -13.2438 -1.17006 -8.37955
upperneck 28.8769 -0.661961 1.72212
head 11.6679 -1.23418 1.93913
rclavicle 5.86415e-015 3.18055e-015
rhumerus -24.3766 -3.78814 -79.9962
rradius 42.1818
rwrist -16.6256
rhand -22.8158 12.0614
rfingers 7.12502
rthumb 3.62103 -17.8875
lclavicle 5.86415e-015 3.18055e-015
lhumerus -38.1504 -0.0664357 89.4486
lradius 35.7984
lwrist 4.04004
lhand -15.4922 22.1567
lfingers 7.12502
lthumb 10.69 51.8647
rfemur -11.8756 -3.79295 30.0529
rtibia 28.0648
rfoot -13.268 3.58996
rtoes 26.6806
lfemur -14.3757 -1.2837 -13.0924
ltibia 30.3165
lfoot -12.2001 -4.37458
ltoes 11.491
